<svg width="512" height="512" viewBox="0 0 512 512" fill="none" xmlns="http://www.w3.org/2000/svg">
<circle cx="436" cy="432" r="56" fill="#3B413C"/>
<circle cx="436" cy="432" r="24" fill="#CECECC"/>
<g opacity="0.1">
<mask id="mask0_4_161" style="mask-type:alpha" maskUnits="userSpaceOnUse" x="363" y="375" width="128" height="96">
<path d="M487.346 404.631C489.758 410.455 490.999 416.697 490.999 423L427 423L395 471L363 471L363 432.5C363 427.5 442.999 375 442.999 375C449.303 375 455.544 376.242 461.368 378.654C467.192 381.066 472.483 384.602 476.94 389.059C481.398 393.516 484.933 398.808 487.346 404.631Z" fill="#2F486E"/>
</mask>
<g mask="url(#mask0_4_161)">
<circle cx="436" cy="432" r="56" fill="#3B413C"/>
</g>
</g>
<path d="M426.101 441.899C431.568 447.367 440.432 447.367 445.899 441.899C451.367 436.432 451.367 427.568 445.899 422.101L426.101 441.899ZM445.899 422.101L427.899 404.101L408.101 423.899L426.101 441.899L445.899 422.101Z" fill="#D5D5D3"/>
<circle cx="124" cy="432" r="56" fill="#3B413C"/>
<circle cx="124" cy="432" r="24" fill="#CECECC"/>
<path d="M208 241V261H292.183C306.406 261 316.084 275.428 310.688 288.588L273 380.5V415.5" stroke="#676D68" stroke-width="40" stroke-linejoin="round"/>
<path d="M396 179V201H412V175L383 139L372 149L396 179Z" fill="#D5D5D3"/>
<circle cx="360" cy="125" r="28" fill="#D5D5D3"/>
<path d="M436 249V193H422C406 193 372 221 372 235V249H436Z" fill="#676D68"/>
<circle cx="372" cy="233" r="15.5" fill="#3B413C" stroke="#3B413C"/>
<path d="M404 201.5V241H384L356 217V185L404 201.5Z" fill="#FDC8A2"/>
<path d="M284 185H356V217H276C264 217 253.5 201 252 201V241H188V129H236L284 185Z" fill="#76C6AD"/>
<path d="M252 104L267 97L252 74V65H188V129H236C244.837 129 252 121.837 252 113V104Z" fill="#FDC8A2"/>
<path d="M188 65H252V74L256.565 81H252H188V65Z" fill="#FDB683"/>
<path d="M260 65C260 59.7471 258.914 54.5457 256.803 49.6927C254.692 44.8396 251.599 40.4301 247.698 36.7157C243.798 33.0014 239.168 30.055 234.073 28.0448C228.977 26.0346 223.516 25 218 25C212.484 25 207.023 26.0346 201.927 28.0448C196.832 30.055 192.202 33.0014 188.302 36.7157C184.401 40.4301 181.308 44.8396 179.197 49.6927C177.086 54.5457 176 59.7471 176 65L178 84C178 95.598 187.402 105 199 105C210.598 105 220 95.598 220 84V65H260Z" fill="#76C6AD"/>
<path d="M28 152C28 143.163 35.1634 136 44 136H140C148.837 136 156 143.163 156 152V265H28V152Z" fill="#76C6AD"/>
<rect width="128" height="16" transform="matrix(1 0 0 -1 28 177)" fill="#76C6AD"/>
<rect width="128" height="16" transform="matrix(1 0 0 -1 28 177)" fill="black" fill-opacity="0.1"/>
<rect x="52" y="193" width="16" height="48" fill="#76C6AD"/>
<rect x="52" y="193" width="16" height="48" fill="white" fill-opacity="0.1"/>
<rect x="44" y="353" width="48" height="40" fill="#676D68"/>
<rect x="44" y="353" width="48" height="40" fill="black" fill-opacity="0.1"/>
<path d="M156 273H38H28V289L116 305H156V273Z" stroke="#D5D5D3" stroke-width="16" stroke-linejoin="round"/>
<path d="M228.999 340C220.247 340 211.853 344.056 205.665 351.277C199.476 358.497 195.999 368.289 195.999 378.5C195.999 388.711 199.476 398.504 205.665 405.724C211.853 412.944 220.247 417 228.999 417L301.999 417C307.999 417 311.999 412 313.999 410L365.999 358C365.999 358 371.999 352 371.999 345L371.999 281C371.999 276.798 372.827 272.637 374.435 268.754C376.043 264.872 378.4 261.344 381.372 258.373C384.343 255.401 387.871 253.044 391.753 251.436C395.636 249.828 399.797 249 403.999 249L403.999 289C403.999 294.253 405.034 299.454 407.044 304.307C409.054 309.16 412.001 313.57 415.715 317.284C419.429 320.999 423.839 323.945 428.692 325.955C433.545 327.965 438.746 329 443.999 329L443.999 361C450.303 361 456.544 362.242 462.368 364.654C468.192 367.066 473.483 370.602 477.94 375.059C482.398 379.516 485.933 384.808 488.346 390.631C490.758 396.455 491.999 402.697 491.999 409L428 409L396 457L364 457L364 418.5C364 415.326 365.209 413.159 366.092 412C362.197 416.288 346.917 433.083 343 437C338.5 441.5 331.5 449 322 449L27 449C27 434.949 29.9616 421.035 35.7158 408.053C41.47 395.071 49.904 383.276 60.5363 373.34C71.1686 363.404 83.791 355.522 97.6827 350.145C103.628 347.844 109.756 346.02 116 344.687L116 313L251.999 313C251.999 316.546 251.404 320.057 250.248 323.333C249.093 326.608 247.398 329.585 245.263 332.092C243.127 334.599 240.591 336.588 237.801 337.945C235.01 339.302 232.02 340 228.999 340Z" fill="#676D68"/>
<rect x="156" y="281" width="96" height="32" rx="16" fill="#3B413C"/>
<path d="M252 385H300C308.837 385 316 392.163 316 401C316 409.837 308.837 417 300 417H252V385Z" fill="#D5D5D3"/>
<path d="M216 187L252 223V203L226 177L216 187Z" fill="#76C6AD"/>
<path d="M216 187L252 223V203L226 177L216 187Z" fill="black" fill-opacity="0.1"/>
<circle cx="372" cy="233" r="16" fill="#3B413C"/>
<path d="M68 417.5C74.5 404.5 82.5 396 92.5 388.5" stroke="#676D68" stroke-width="16" stroke-linejoin="round"/>
<path d="M68 417.5C74.5 404.5 82.5 396 92.5 388.5" stroke="white" stroke-opacity="0.15" stroke-width="16" stroke-linejoin="round"/>
<path d="M105.5 381.5C109.5 380 116.5 377.5 120.5 377" stroke="#676D68" stroke-width="16" stroke-linejoin="round"/>
<path d="M105.5 381.5C109.5 380 116.5 377.5 120.5 377" stroke="white" stroke-opacity="0.15" stroke-width="16" stroke-linejoin="round"/>
<path d="M365 413C365 399 388 361 425 361L444 361" stroke="#676D68" stroke-width="16"/>
<path d="M365 413C365 399 388 361 425 361L444 361" stroke="black" stroke-opacity="0.1" stroke-width="16"/>
<rect x="116" y="337" width="56" height="16" fill="#676D68"/>
<rect x="116" y="337" width="56" height="16" fill="black" fill-opacity="0.1"/>
<path d="M132 417V433H280C296.5 433 307 417 307 417H132Z" fill="#676D68"/>
<path d="M132 417V433H280C296.5 433 307 417 307 417H132Z" fill="black" fill-opacity="0.1"/>
</svg>
