<svg width="96" height="96" viewBox="0 0 96 96" fill="none" xmlns="http://www.w3.org/2000/svg">
<g clip-path="url(#clip0_228_637)">
<path d="M0 48C0 35.2696 5.05713 23.0606 14.0589 14.0589C23.0606 5.05713 35.2696 0 48 0C60.7304 0 72.9394 5.05713 81.9411 14.0589C90.9429 23.0606 96 35.2696 96 48C96 60.7304 90.9429 72.9394 81.9411 81.9411C72.9394 90.9429 60.7304 96 48 96C35.2696 96 23.0606 90.9429 14.0589 81.9411C5.05713 72.9394 0 60.7304 0 48ZM54 18C54 16.4087 53.3679 14.8826 52.2426 13.7574C51.1174 12.6321 49.5913 12 48 12C46.4087 12 44.8826 12.6321 43.7574 13.7574C42.6321 14.8826 42 16.4087 42 18C42 19.5913 42.6321 21.1174 43.7574 22.2426C44.8826 23.3679 46.4087 24 48 24C49.5913 24 51.1174 23.3679 52.2426 22.2426C53.3679 21.1174 54 19.5913 54 18ZM48 78C54.6188 78 60 72.6188 60 66C60 62.7375 58.7062 59.7937 56.6062 57.6375L68.625 30.3187C69.6188 28.05 68.5875 25.3875 66.3188 24.3938C64.05 23.4 61.3875 24.4312 60.3938 26.7L48.3562 54C48.2437 54 48.1125 54 48 54C41.3812 54 36 59.3812 36 66C36 72.6188 41.3812 78 48 78ZM33 27C33 25.4087 32.3679 23.8826 31.2426 22.7574C30.1174 21.6321 28.5913 21 27 21C25.4087 21 23.8826 21.6321 22.7574 22.7574C21.6321 23.8826 21 25.4087 21 27C21 28.5913 21.6321 30.1174 22.7574 31.2426C23.8826 32.3679 25.4087 33 27 33C28.5913 33 30.1174 32.3679 31.2426 31.2426C32.3679 30.1174 33 28.5913 33 27ZM18 54C19.5913 54 21.1174 53.3679 22.2426 52.2426C23.3679 51.1174 24 49.5913 24 48C24 46.4087 23.3679 44.8826 22.2426 43.7574C21.1174 42.6321 19.5913 42 18 42C16.4087 42 14.8826 42.6321 13.7574 43.7574C12.6321 44.8826 12 46.4087 12 48C12 49.5913 12.6321 51.1174 13.7574 52.2426C14.8826 53.3679 16.4087 54 18 54ZM84 48C84 46.4087 83.3679 44.8826 82.2426 43.7574C81.1174 42.6321 79.5913 42 78 42C76.4087 42 74.8826 42.6321 73.7574 43.7574C72.6321 44.8826 72 46.4087 72 48C72 49.5913 72.6321 51.1174 73.7574 52.2426C74.8826 53.3679 76.4087 54 78 54C79.5913 54 81.1174 53.3679 82.2426 52.2426C83.3679 51.1174 84 49.5913 84 48Z" fill="white"/>
</g>
<defs>
<clipPath id="clip0_228_637">
<rect width="96" height="96" fill="white"/>
</clipPath>
</defs>
</svg>
