<svg width="103" height="20" viewBox="0 0 103 20" fill="none" xmlns="http://www.w3.org/2000/svg">
<path d="M3 6H17" stroke="#3B413C" stroke-width="2" stroke-linecap="round"/>
<path d="M1 10H15" stroke="#3B413C" stroke-width="2" stroke-linecap="round"/>
<path d="M9 14H15" stroke="#3B413C" stroke-width="2" stroke-linecap="round"/>
<path d="M9 10H15" stroke="#3B413C" stroke-width="2" stroke-linecap="round"/>
<path d="M25.832 9.568H30.76L30.184 12.416H25.272L25.832 9.568ZM24.808 16H21.032L23.272 4.8H32.376L31.8 7.648H26.472L24.808 16ZM35.0606 16.16C34.4846 16.16 33.9193 16.0053 33.3646 15.696C32.81 15.376 32.3513 14.9173 31.9886 14.32C31.6366 13.712 31.4606 12.976 31.4606 12.112C31.4606 11.3867 31.5833 10.72 31.8286 10.112C32.074 9.504 32.41 8.976 32.8366 8.528C33.274 8.06933 33.77 7.71733 34.3246 7.472C34.89 7.216 35.4873 7.088 36.1166 7.088C36.7993 7.088 37.3913 7.22667 37.8926 7.504C38.394 7.78133 38.7513 8.25067 38.9646 8.912C39.1886 9.56267 39.21 10.464 39.0286 11.616C38.8793 12.5547 38.6233 13.3653 38.2606 14.048C37.9086 14.7307 37.466 15.2533 36.9326 15.616C36.3993 15.9787 35.7753 16.16 35.0606 16.16ZM36.4206 13.312C36.7406 13.312 37.018 13.232 37.2526 13.072C37.4873 12.9013 37.6686 12.6667 37.7966 12.368C37.9353 12.0693 38.0046 11.7173 38.0046 11.312C38.0046 10.9067 37.8873 10.576 37.6526 10.32C37.4286 10.064 37.114 9.936 36.7086 9.936C36.3993 9.936 36.122 10.0213 35.8766 10.192C35.642 10.352 35.4553 10.5813 35.3166 10.88C35.1886 11.1787 35.1246 11.5307 35.1246 11.936C35.1246 12.3413 35.2366 12.672 35.4606 12.928C35.6953 13.184 36.0153 13.312 36.4206 13.312ZM37.2686 16L37.5086 14.816L38.1006 11.616L38.5646 8.448L38.8046 7.248H42.4206L40.6766 16H37.2686ZM45.9118 16.16C45.1331 16.16 44.3918 16.0853 43.6878 15.936C42.9944 15.776 42.4558 15.584 42.0717 15.36L43.3198 12.896C43.7571 13.1627 44.2478 13.3653 44.7918 13.504C45.3464 13.632 45.8691 13.696 46.3598 13.696C46.7651 13.696 47.0424 13.6587 47.1918 13.584C47.3518 13.4987 47.4318 13.3973 47.4318 13.28C47.4318 13.152 47.3251 13.0613 47.1118 13.008C46.8984 12.944 46.6211 12.8907 46.2798 12.848C45.9491 12.8053 45.5971 12.7413 45.2238 12.656C44.8504 12.5707 44.4931 12.448 44.1518 12.288C43.8211 12.1173 43.5491 11.8827 43.3358 11.584C43.1224 11.2853 43.0158 10.8907 43.0158 10.4C43.0158 9.64267 43.2344 9.024 43.6718 8.544C44.1198 8.05333 44.7171 7.69067 45.4638 7.456C46.2104 7.21067 47.0371 7.088 47.9438 7.088C48.5838 7.088 49.1971 7.14667 49.7838 7.264C50.3811 7.37067 50.9091 7.53067 51.3678 7.744L50.1198 10.208C49.6611 9.94133 49.2024 9.76533 48.7438 9.68C48.2958 9.59467 47.8851 9.552 47.5118 9.552C47.0958 9.552 46.8078 9.6 46.6478 9.696C46.4878 9.78133 46.4078 9.87733 46.4078 9.984C46.4078 10.112 46.5144 10.208 46.7278 10.272C46.9411 10.336 47.2131 10.3947 47.5438 10.448C47.8744 10.4907 48.2264 10.5547 48.5998 10.64C48.9838 10.7147 49.3411 10.8373 49.6718 11.008C50.0024 11.168 50.2744 11.3973 50.4878 11.696C50.7011 11.9947 50.8078 12.3893 50.8078 12.88C50.8078 13.6053 50.5838 14.2133 50.1358 14.704C49.6984 15.1947 49.1064 15.5627 48.3598 15.808C47.6238 16.0427 46.8078 16.16 45.9118 16.16ZM55.5026 16.16C54.756 16.16 54.1213 16.0213 53.5986 15.744C53.076 15.4667 52.708 15.0613 52.4946 14.528C52.2813 13.984 52.2493 13.3333 52.3986 12.576L53.8546 5.28H57.4706L56.0146 12.56C55.9613 12.8587 55.9933 13.0773 56.1106 13.216C56.228 13.3547 56.4093 13.424 56.6546 13.424C56.804 13.424 56.9373 13.408 57.0546 13.376C57.1826 13.3333 57.316 13.28 57.4546 13.216L57.8706 15.648C57.54 15.8293 57.1666 15.9573 56.7506 16.032C56.3453 16.1173 55.9293 16.16 55.5026 16.16ZM51.6306 10.368L52.1586 7.728H58.7666L58.2386 10.368H51.6306ZM63.582 9.568H68.51L67.934 12.416H63.022L63.582 9.568ZM62.558 16H58.782L61.022 4.8H70.126L69.55 7.648H64.222L62.558 16ZM73.9466 16.16C72.9866 16.16 72.1493 15.9947 71.4346 15.664C70.72 15.3227 70.1653 14.848 69.7706 14.24C69.3866 13.632 69.1946 12.9227 69.1946 12.112C69.1946 11.152 69.4293 10.2933 69.8986 9.536C70.368 8.77867 71.0133 8.18133 71.8346 7.744C72.656 7.30667 73.5946 7.088 74.6506 7.088C75.6213 7.088 76.4586 7.25867 77.1626 7.6C77.8773 7.93067 78.4266 8.4 78.8106 9.008C79.2053 9.60533 79.4026 10.3147 79.4026 11.136C79.4026 12.096 79.168 12.9547 78.6986 13.712C78.2293 14.4693 77.584 15.0667 76.7626 15.504C75.952 15.9413 75.0133 16.16 73.9466 16.16ZM74.1546 13.344C74.4746 13.344 74.752 13.264 74.9866 13.104C75.2213 12.9333 75.4026 12.6987 75.5306 12.4C75.6693 12.0907 75.7386 11.728 75.7386 11.312C75.7386 10.9387 75.6266 10.6133 75.4026 10.336C75.1786 10.048 74.8586 9.904 74.4426 9.904C74.1333 9.904 73.856 9.98933 73.6106 10.16C73.376 10.32 73.1893 10.5547 73.0506 10.864C72.9226 11.1627 72.8586 11.52 72.8586 11.936C72.8586 12.352 72.9706 12.6933 73.1946 12.96C73.4293 13.216 73.7493 13.344 74.1546 13.344ZM84.7591 16.16C83.7991 16.16 82.9618 15.9947 82.2471 15.664C81.5325 15.3227 80.9778 14.848 80.5831 14.24C80.1991 13.632 80.0071 12.9227 80.0071 12.112C80.0071 11.152 80.2418 10.2933 80.7111 9.536C81.1805 8.77867 81.8258 8.18133 82.6471 7.744C83.4685 7.30667 84.4071 7.088 85.4631 7.088C86.4338 7.088 87.2711 7.25867 87.9751 7.6C88.6898 7.93067 89.2391 8.4 89.6231 9.008C90.0178 9.60533 90.2151 10.3147 90.2151 11.136C90.2151 12.096 89.9805 12.9547 89.5111 13.712C89.0418 14.4693 88.3965 15.0667 87.5751 15.504C86.7645 15.9413 85.8258 16.16 84.7591 16.16ZM84.9671 13.344C85.2871 13.344 85.5645 13.264 85.7991 13.104C86.0338 12.9333 86.2151 12.6987 86.3431 12.4C86.4818 12.0907 86.5511 11.728 86.5511 11.312C86.5511 10.9387 86.4391 10.6133 86.2151 10.336C85.9911 10.048 85.6711 9.904 85.2551 9.904C84.9458 9.904 84.6685 9.98933 84.4231 10.16C84.1885 10.32 84.0018 10.5547 83.8631 10.864C83.7351 11.1627 83.6711 11.52 83.6711 11.936C83.6711 12.352 83.7831 12.6933 84.0071 12.96C84.2418 13.216 84.5618 13.344 84.9671 13.344ZM94.5156 16.16C93.9396 16.16 93.3743 16.0053 92.8196 15.696C92.265 15.376 91.8063 14.9173 91.4436 14.32C91.0916 13.712 90.9156 12.976 90.9156 12.112C90.9156 11.3867 91.0383 10.72 91.2836 10.112C91.529 9.504 91.865 8.976 92.2916 8.528C92.729 8.06933 93.225 7.71733 93.7796 7.472C94.345 7.216 94.9423 7.088 95.5716 7.088C96.1583 7.088 96.6756 7.18933 97.1236 7.392C97.5823 7.584 97.9396 7.91467 98.1956 8.384C98.4623 8.84267 98.5956 9.46667 98.5956 10.256C98.5956 11.0027 98.5103 11.728 98.3396 12.432C98.169 13.136 97.913 13.7707 97.5716 14.336C97.2303 14.8907 96.8036 15.3333 96.2916 15.664C95.7796 15.9947 95.1876 16.16 94.5156 16.16ZM95.8756 13.312C96.1956 13.312 96.473 13.232 96.7076 13.072C96.9423 12.9013 97.1236 12.6667 97.2516 12.368C97.3903 12.0693 97.4596 11.7173 97.4596 11.312C97.4596 10.9067 97.3423 10.576 97.1076 10.32C96.8836 10.064 96.569 9.936 96.1636 9.936C95.8543 9.936 95.577 10.0213 95.3316 10.192C95.097 10.352 94.9103 10.5813 94.7716 10.88C94.6436 11.1787 94.5796 11.5307 94.5796 11.936C94.5796 12.3413 94.6916 12.672 94.9156 12.928C95.1503 13.184 95.4703 13.312 95.8756 13.312ZM96.7076 16L96.9476 14.816L97.5396 11.616L98.0036 8.448L98.8676 4.128H102.484L100.116 16H96.7076Z" fill="#3B413C"/>
</svg>
