<svg width="34" height="30" viewBox="0 0 34 30" fill="none" xmlns="http://www.w3.org/2000/svg">
<path d="M4 9.84375C4 9.37617 4.37471 9 4.84046 9H6.43383C7.20426 9 7.88713 9.45 8.2058 10.125H22.5987C23.5197 10.125 24.1921 11.0039 23.9504 11.8969L22.5146 17.2512C22.217 18.3551 21.2189 19.125 20.0808 19.125H9.97778L10.1669 20.127C10.2439 20.5242 10.5906 20.8125 10.9933 20.8125H21.0894C21.5551 20.8125 21.9298 21.1887 21.9298 21.6562C21.9298 22.1238 21.5551 22.5 21.0894 22.5H10.9933C9.78167 22.5 8.7416 21.6352 8.51748 20.4434L6.71049 10.916C6.68597 10.7824 6.57041 10.6875 6.43383 10.6875H4.84046C4.37471 10.6875 4 10.3113 4 9.84375ZM8.48246 25.3125C8.48246 25.0909 8.52593 24.8715 8.61041 24.6667C8.69488 24.462 8.8187 24.276 8.97479 24.1193C9.13087 23.9626 9.31618 23.8383 9.52012 23.7535C9.72406 23.6686 9.94264 23.625 10.1634 23.625C10.3841 23.625 10.6027 23.6686 10.8066 23.7535C11.0106 23.8383 11.1959 23.9626 11.352 24.1193C11.5081 24.276 11.6319 24.462 11.7163 24.6667C11.8008 24.8715 11.8443 25.0909 11.8443 25.3125C11.8443 25.5341 11.8008 25.7535 11.7163 25.9583C11.6319 26.163 11.5081 26.349 11.352 26.5057C11.1959 26.6624 11.0106 26.7867 10.8066 26.8715C10.6027 26.9564 10.3841 27 10.1634 27C9.94264 27 9.72406 26.9564 9.52012 26.8715C9.31618 26.7867 9.13087 26.6624 8.97479 26.5057C8.8187 26.349 8.69488 26.163 8.61041 25.9583C8.52593 25.7535 8.48246 25.5341 8.48246 25.3125ZM20.2489 23.625C20.6947 23.625 21.1223 23.8028 21.4375 24.1193C21.7527 24.4357 21.9298 24.8649 21.9298 25.3125C21.9298 25.7601 21.7527 26.1893 21.4375 26.5057C21.1223 26.8222 20.6947 27 20.2489 27C19.8031 27 19.3755 26.8222 19.0603 26.5057C18.7451 26.1893 18.568 25.7601 18.568 25.3125C18.568 24.8649 18.7451 24.4357 19.0603 24.1193C19.3755 23.8028 19.8031 23.625 20.2489 23.625Z" fill="#3B413C"/>
</svg>
