<svg width="34" height="30" viewBox="0 0 34 30" fill="none" xmlns="http://www.w3.org/2000/svg">
<path d="M4 6.84375C4 6.37617 4.37471 6 4.84046 6H6.43383C7.20426 6 7.88713 6.45 8.2058 7.125H22.5987C23.5197 7.125 24.1921 8.00391 23.9504 8.89688L22.5146 14.2512C22.217 15.3551 21.2189 16.125 20.0808 16.125H9.97778L10.1669 17.127C10.2439 17.5242 10.5906 17.8125 10.9933 17.8125H21.0894C21.5551 17.8125 21.9298 18.1887 21.9298 18.6562C21.9298 19.1238 21.5551 19.5 21.0894 19.5H10.9933C9.78167 19.5 8.7416 18.6352 8.51748 17.4434L6.71049 7.91602C6.68597 7.78242 6.57041 7.6875 6.43383 7.6875H4.84046C4.37471 7.6875 4 7.31133 4 6.84375ZM8.48246 22.3125C8.48246 22.0909 8.52593 21.8715 8.61041 21.6667C8.69488 21.462 8.8187 21.276 8.97479 21.1193C9.13087 20.9626 9.31618 20.8383 9.52012 20.7535C9.72406 20.6686 9.94264 20.625 10.1634 20.625C10.3841 20.625 10.6027 20.6686 10.8066 20.7535C11.0106 20.8383 11.1959 20.9626 11.352 21.1193C11.5081 21.276 11.6319 21.462 11.7163 21.6667C11.8008 21.8715 11.8443 22.0909 11.8443 22.3125C11.8443 22.5341 11.8008 22.7535 11.7163 22.9583C11.6319 23.163 11.5081 23.349 11.352 23.5057C11.1959 23.6624 11.0106 23.7867 10.8066 23.8715C10.6027 23.9564 10.3841 24 10.1634 24C9.94264 24 9.72406 23.9564 9.52012 23.8715C9.31618 23.7867 9.13087 23.6624 8.97479 23.5057C8.8187 23.349 8.69488 23.163 8.61041 22.9583C8.52593 22.7535 8.48246 22.5341 8.48246 22.3125ZM20.2489 20.625C20.6947 20.625 21.1223 20.8028 21.4375 21.1193C21.7527 21.4357 21.9298 21.8649 21.9298 22.3125C21.9298 22.7601 21.7527 23.1893 21.4375 23.5057C21.1223 23.8222 20.6947 24 20.2489 24C19.8031 24 19.3755 23.8222 19.0603 23.5057C18.7451 23.1893 18.568 22.7601 18.568 22.3125C18.568 21.8649 18.7451 21.4357 19.0603 21.1193C19.3755 20.8028 19.8031 20.625 20.2489 20.625Z" fill="#3B413C"/>
</svg>
