<svg width="120" height="96" viewBox="0 0 120 96" fill="none" xmlns="http://www.w3.org/2000/svg">
<g clip-path="url(#clip0_228_5)">
<path d="M27.2177 0.0205078C31.1728 0.0205078 34.9659 1.60019 37.7625 4.41203C40.5592 7.22387 42.1303 11.0376 42.1303 15.0141C42.1303 18.9906 40.5592 22.8043 37.7625 25.6162C34.9659 28.428 31.1728 30.0077 27.2177 30.0077C23.2626 30.0077 19.4696 28.428 16.6729 25.6162C13.8762 22.8043 12.3051 18.9906 12.3051 15.0141C12.3051 11.0376 13.8762 7.22387 16.6729 4.41203C19.4696 1.60019 23.2626 0.0205078 27.2177 0.0205078ZM95.8158 0.0205078C99.7709 0.0205078 103.564 1.60019 106.361 4.41203C109.157 7.22387 110.728 11.0376 110.728 15.0141C110.728 18.9906 109.157 22.8043 106.361 25.6162C103.564 28.428 99.7709 30.0077 95.8158 30.0077C91.8607 30.0077 88.0676 28.428 85.271 25.6162C82.4743 22.8043 80.9032 18.9906 80.9032 15.0141C80.9032 11.0376 82.4743 7.22387 85.271 4.41203C88.0676 1.60019 91.8607 0.0205078 95.8158 0.0205078ZM0.375 56.0028C0.375 44.9638 9.28529 36.0051 20.2647 36.0051H28.2243C31.1882 36.0051 34.003 36.6611 36.5381 37.8231C36.2958 39.1725 36.1839 40.5782 36.1839 42.0026C36.1839 49.162 39.3156 55.5905 44.2554 59.9949C44.2181 59.9949 44.1808 59.9949 44.1249 59.9949H4.34549C2.16451 59.9949 0.375 58.1956 0.375 56.0028ZM75.9261 59.9949C75.8888 59.9949 75.8515 59.9949 75.7956 59.9949C80.754 55.5905 83.867 49.162 83.867 42.0026C83.867 40.5782 83.7366 39.1913 83.5129 37.8231C86.048 36.6424 88.8628 36.0051 91.8267 36.0051H99.7863C110.766 36.0051 119.676 44.9638 119.676 56.0028C119.676 58.2144 117.886 59.9949 115.705 59.9949H75.9447H75.9261ZM42.1303 42.0026C42.1303 37.2307 44.0157 32.6543 47.3717 29.2801C50.7277 25.9059 55.2794 24.0103 60.0255 24.0103C64.7716 24.0103 69.3233 25.9059 72.6793 29.2801C76.0353 32.6543 77.9206 37.2307 77.9206 42.0026C77.9206 46.7744 76.0353 51.3508 72.6793 54.725C69.3233 58.0993 64.7716 59.9949 60.0255 59.9949C55.2794 59.9949 50.7277 58.0993 47.3717 54.725C44.0157 51.3508 42.1303 46.7744 42.1303 42.0026ZM24.2352 90.9754C24.2352 77.1813 35.3637 65.9923 49.0834 65.9923H70.949C84.6872 65.9923 95.8158 77.1813 95.8158 90.9754C95.8158 93.7305 93.5975 95.9795 90.8387 95.9795H29.1936C26.4534 95.9795 24.2166 93.7492 24.2166 90.9754H24.2352Z" fill="white"/>
</g>
<defs>
<clipPath id="clip0_228_5">
<rect width="119.25" height="95.959" fill="white" transform="translate(0.375 0.0205078)"/>
</clipPath>
</defs>
</svg>
