<svg width="152" height="96" viewBox="0 0 152 96" fill="none" xmlns="http://www.w3.org/2000/svg">
<g clip-path="url(#clip0_228_564)">
<path d="M80.5905 2.84766C79.7486 1.10742 77.9695 0 76.0155 0C74.0616 0 72.2984 1.10742 71.4405 2.84766L61.2262 23.7779L38.4148 27.1318C36.5085 27.4166 34.92 28.7455 34.3322 30.5648C33.7444 32.3842 34.221 34.3934 35.5872 35.7381L52.1398 52.0488L48.2319 75.099C47.9142 76.9975 48.7085 78.9275 50.2812 80.0508C51.8538 81.174 53.9348 81.3164 55.6504 80.4147L76.0314 69.5777L96.4124 80.4147C98.128 81.3164 100.209 81.1898 101.782 80.0508C103.354 78.9117 104.149 76.9975 103.831 75.099L99.9072 52.0488L116.46 35.7381C117.826 34.3934 118.318 32.3842 117.715 30.5648C117.111 28.7455 115.538 27.4166 113.632 27.1318L90.8049 23.7779L80.5905 2.84766Z" fill="white"/>
</g>
<g clip-path="url(#clip1_228_564)">
<path d="M25.409 56.9238C24.9881 56.0537 24.0985 55.5 23.1215 55.5C22.1446 55.5 21.2629 56.0537 20.834 56.9238L15.7269 67.389L4.32115 69.0659C3.36803 69.2083 2.57375 69.8728 2.27987 70.7824C1.98599 71.6921 2.22427 72.6967 2.90735 73.369L11.1837 81.5244L9.22974 93.0495C9.07089 93.9987 9.46803 94.9638 10.2544 95.5254C11.0407 96.087 12.0812 96.1582 12.939 95.7073L23.1295 90.2889L33.32 95.7073C34.1778 96.1582 35.2183 96.0949 36.0046 95.5254C36.7909 94.9559 37.1881 93.9987 37.0292 93.0495L35.0674 81.5244L43.3437 73.369C44.0268 72.6967 44.273 71.6921 43.9711 70.7824C43.6693 69.8728 42.883 69.2083 41.9299 69.0659L30.5162 67.389L25.409 56.9238Z" fill="white"/>
</g>
<g clip-path="url(#clip2_228_564)">
<path d="M131.159 56.9238C130.738 56.0537 129.848 55.5 128.872 55.5C127.895 55.5 127.013 56.0537 126.584 56.9238L121.477 67.389L110.071 69.0659C109.118 69.2083 108.324 69.8728 108.03 70.7824C107.736 71.6921 107.974 72.6967 108.657 73.369L116.934 81.5244L114.98 93.0495C114.821 93.9987 115.218 94.9638 116.004 95.5254C116.791 96.087 117.831 96.1582 118.689 95.7073L128.879 90.2889L139.07 95.7073C139.928 96.1582 140.968 96.0949 141.755 95.5254C142.541 94.9559 142.938 93.9987 142.779 93.0495L140.817 81.5244L149.094 73.369C149.777 72.6967 150.023 71.6921 149.721 70.7824C149.419 69.8728 148.633 69.2083 147.68 69.0659L136.266 67.389L131.159 56.9238Z" fill="white"/>
</g>
<defs>
<clipPath id="clip0_228_564">
<rect width="91.5" height="81" fill="white" transform="translate(30.25)"/>
</clipPath>
<clipPath id="clip1_228_564">
<rect width="45.75" height="40.5" fill="white" transform="translate(0.25 55.5)"/>
</clipPath>
<clipPath id="clip2_228_564">
<rect width="45.75" height="40.5" fill="white" transform="translate(106 55.5)"/>
</clipPath>
</defs>
</svg>
