<svg width="20" height="19" viewBox="0 0 20 19" fill="none" xmlns="http://www.w3.org/2000/svg">
<g clip-path="url(#clip0_126_169)">
<path d="M10.1006 1.56251L10.102 1.56556L12.3347 6.21673C12.4781 6.51566 12.7605 6.72402 13.0884 6.77301L18.0756 7.51796C18.0758 7.51799 18.076 7.51802 18.0762 7.51804C18.1114 7.52361 18.1504 7.55018 18.1675 7.60244C18.1826 7.6488 18.1691 7.70225 18.1364 7.73495L18.1361 7.73533L14.518 11.3599C14.2899 11.5885 14.1862 11.9131 14.2395 12.2315L15.0967 17.3511C15.0967 17.3513 15.0968 17.3516 15.0968 17.3518C15.1048 17.402 15.0838 17.4534 15.0425 17.4838C15.0158 17.5035 14.9762 17.5104 14.9343 17.4885C14.9339 17.4883 14.9335 17.4881 14.9332 17.488L10.4825 15.082C10.1858 14.9216 9.8282 14.9216 9.53146 15.082L5.08084 17.488C5.08049 17.4881 5.08015 17.4883 5.0798 17.4885C5.04326 17.5075 5.00006 17.5045 4.9661 17.4799C4.93335 17.4561 4.90853 17.4058 4.91725 17.3516C4.91728 17.3514 4.91731 17.3513 4.91734 17.3511L5.77116 12.2309C5.82424 11.9126 5.72048 11.5883 5.49253 11.3599L1.87447 7.73533L1.87409 7.73495C1.84597 7.70681 1.82734 7.65205 1.84546 7.59503C1.85845 7.55416 1.89381 7.52444 1.93435 7.51805C1.93454 7.51802 1.93474 7.51799 1.93494 7.51796L6.91873 6.773C7.24664 6.72398 7.52893 6.51563 7.67241 6.21673L9.90335 1.56909C9.9035 1.56876 9.90366 1.56844 9.90382 1.56812C9.92811 1.51886 9.96871 1.5 10.0035 1.5C10.0434 1.5 10.0817 1.52291 10.1006 1.56251Z" stroke="#FFD43B" stroke-width="2" stroke-linejoin="round"/>
</g>
<defs>
<clipPath id="clip0_126_169">
<rect width="20" height="18" fill="white" transform="translate(0 0.5)"/>
</clipPath>
</defs>
</svg>
